<?xml version="1.0" encoding="UTF-8" standalone="no"?>
<!-- Created with Inkscape (http://www.inkscape.org/) -->

<svg
   xmlns:dc="http://purl.org/dc/elements/1.1/"
   xmlns:cc="http://creativecommons.org/ns#"
   xmlns:rdf="http://www.w3.org/1999/02/22-rdf-syntax-ns#"
   xmlns:svg="http://www.w3.org/2000/svg"
   xmlns="http://www.w3.org/2000/svg"
   xmlns:xlink="http://www.w3.org/1999/xlink"
   xmlns:sodipodi="http://sodipodi.sourceforge.net/DTD/sodipodi-0.dtd"
   xmlns:inkscape="http://www.inkscape.org/namespaces/inkscape"
   width="256"
   height="67.239807"
   viewBox="0 0 67.733334 17.790532"
   version="1.1"
   id="svg8"
   inkscape:version="0.92.3 (2405546, 2018-03-11)"
   sodipodi:docname="button-resources.svg"
   inkscape:export-filename="/home/kane/Dropbox/repos/elixir-cloud-aai/elixir-cloud-aai/images/button-resources.png"
   inkscape:export-xdpi="96"
   inkscape:export-ydpi="96">
  <defs
     id="defs2">
    <linearGradient
       inkscape:collect="always"
       id="linearGradient1277">
      <stop
         style="stop-color:#ececec;stop-opacity:1;"
         offset="0"
         id="stop1273" />
      <stop
         style="stop-color:#ececec;stop-opacity:0;"
         offset="1"
         id="stop1275" />
    </linearGradient>
    <filter
       inkscape:collect="always"
       style="color-interpolation-filters:sRGB"
       id="filter1261"
       x="-0.0075739506"
       width="1.0151479"
       y="-0.028872384"
       height="1.0577447">
      <feGaussianBlur
         inkscape:collect="always"
         stdDeviation="0.55287305"
         id="feGaussianBlur1263" />
    </filter>
    <linearGradient
       inkscape:collect="always"
       xlink:href="#linearGradient1277"
       id="linearGradient1279"
       x1="99.720718"
       y1="140.26866"
       x2="99.720718"
       y2="97.486771"
       gradientUnits="userSpaceOnUse"
       gradientTransform="translate(0,29.622364)" />
    <linearGradient
       inkscape:collect="always"
       xlink:href="#linearGradient1277"
       id="linearGradient1404"
       gradientUnits="userSpaceOnUse"
       gradientTransform="translate(0,29.622364)"
       x1="99.720718"
       y1="140.26866"
       x2="99.720718"
       y2="97.486771" />
  </defs>
  <sodipodi:namedview
     id="base"
     pagecolor="#ffffff"
     bordercolor="#666666"
     borderopacity="1.0"
     inkscape:pageopacity="0.0"
     inkscape:pageshadow="2"
     inkscape:zoom="1.979899"
     inkscape:cx="-8.9683976"
     inkscape:cy="44.285231"
     inkscape:document-units="mm"
     inkscape:current-layer="layer1"
     showgrid="false"
     inkscape:snap-global="true"
     inkscape:snap-bbox="true"
     inkscape:bbox-paths="true"
     inkscape:bbox-nodes="true"
     inkscape:snap-bbox-edge-midpoints="true"
     inkscape:snap-bbox-midpoints="true"
     inkscape:object-paths="true"
     inkscape:snap-intersection-paths="true"
     inkscape:snap-smooth-nodes="true"
     inkscape:snap-midpoints="true"
     inkscape:window-width="1853"
     inkscape:window-height="1145"
     inkscape:window-x="67"
     inkscape:window-y="27"
     inkscape:window-maximized="1"
     fit-margin-top="0"
     fit-margin-left="5"
     fit-margin-right="5"
     fit-margin-bottom="0"
     units="px" />
  <metadata
     id="metadata5">
    <rdf:RDF>
      <cc:Work
         rdf:about="">
        <dc:format>image/svg+xml</dc:format>
        <dc:type
           rdf:resource="http://purl.org/dc/dcmitype/StillImage" />
        <dc:title></dc:title>
      </cc:Work>
    </rdf:RDF>
  </metadata>
  <g
     inkscape:label="Layer 1"
     inkscape:groupmode="layer"
     id="layer1"
     transform="translate(-14.272294,-162.7658)">
    <g
       transform="matrix(0.36597723,0,0,0.36597723,11.643465,117.31345)"
       id="g1402"
       inkscape:export-xdpi="96"
       inkscape:export-ydpi="96">
      <rect
         ry="6.4927778"
         y="125.52138"
         x="12.124687"
         height="45.957249"
         width="175.19197"
         id="rect1376"
         style="opacity:1;fill:url(#linearGradient1404);fill-opacity:1;stroke:#999999;stroke-width:2;stroke-linecap:round;stroke-miterlimit:4;stroke-dasharray:none;stroke-dashoffset:0;stroke-opacity:1;paint-order:stroke fill markers;filter:url(#filter1261)"
         rx="6.4927778" />
      <g
         style="stroke-width:1.73933816"
         transform="matrix(0.15209204,0,0,0.15214246,149.16859,131.7554)"
         id="g1390">
        <path
           style="fill:#d8e0e3;fill-opacity:1;stroke:none;stroke-width:2.60900712;stroke-linecap:round;stroke-miterlimit:4;stroke-dasharray:none;stroke-dashoffset:0;stroke-opacity:1"
           d="m 147.0206,60.5538 28.684,17.791 h -48.234 l -28.684,-17.791 z"
           id="path1378"
           inkscape:connector-curvature="0"
           sodipodi:nodetypes="ccccc" />
        <path
           style="fill:#f95b45;fill-opacity:1;stroke:#e2483e;stroke-width:2.60900712;stroke-linecap:round;stroke-miterlimit:4;stroke-dasharray:none;stroke-dashoffset:0;stroke-opacity:1"
           d="m 105.83272,34.2586 h 94.98398 l -7.05727,26.295 H 98.787 Z"
           id="path1380"
           inkscape:connector-curvature="0"
           sodipodi:nodetypes="ccccc" />
        <path
           style="fill:#5aba62;fill-opacity:1;stroke:#469f4e;stroke-width:2.60900712;stroke-linecap:round;stroke-miterlimit:4;stroke-dasharray:none;stroke-dashoffset:0;stroke-opacity:1"
           d="m 27.42508,0.8737 -26.28711,7.0586 55.83594,96.709 h 111.66992 l 7.06055,-26.2969 H 72.15555 Z"
           id="path1382"
           inkscape:connector-curvature="0" />
        <path
           style="fill:#d8e0e3;fill-opacity:1;stroke:none;stroke-width:2.60900712;stroke-linecap:round;stroke-miterlimit:4;stroke-dasharray:none;stroke-dashoffset:0;stroke-opacity:1"
           d="m 84.58779,148.7291 28.684,17.791 h -48.234 l -28.684,-17.791 z"
           id="path1384"
           inkscape:connector-curvature="0"
           sodipodi:nodetypes="ccccc" />
        <path
           style="fill:#23a9f6;fill-opacity:1;stroke:#1b92e1;stroke-width:2.60900712;stroke-linecap:round;stroke-miterlimit:4;stroke-dasharray:none;stroke-dashoffset:0;stroke-opacity:1"
           d="m 18.28781,166.5201 h 94.98398 l -7.05727,26.2951 H 11.24209 Z"
           id="path1386"
           inkscape:connector-curvature="0"
           sodipodi:nodetypes="ccccc" />
        <path
           inkscape:connector-curvature="0"
           style="fill:#ffcb00;fill-opacity:1;stroke:#fcb20f;stroke-width:2.60900712;stroke-linecap:round;stroke-miterlimit:4;stroke-dasharray:none;stroke-dashoffset:0;stroke-opacity:1"
           d="m 184.63309,226.1999 26.28711,-7.0586 -55.83594,-96.709 H 43.41434 l -7.06055,26.2968 h 103.54883 z"
           id="path1388" />
      </g>
      <path
         style="fill:#e6e6e6;fill-opacity:1;stroke:none;stroke-width:2;stroke-linecap:round;stroke-miterlimit:4;stroke-dasharray:none;stroke-dashoffset:0;stroke-opacity:1;paint-order:stroke fill markers"
         d="m 18.617651,125.52121 c -0.126458,0 -0.251574,0.004 -0.376203,0.0114 -0.04091,0.002 -0.08126,0.006 -0.121957,0.009 -0.08397,0.006 -0.167603,0.0138 -0.250632,0.0233 -0.04793,0.005 -0.09554,0.0116 -0.143142,0.0181 -0.0761,0.0104 -0.151641,0.0222 -0.226859,0.0351 -0.04573,0.008 -0.09155,0.0155 -0.136943,0.0243 -0.102378,0.0199 -0.203806,0.0425 -0.304374,0.0672 -0.01422,0.004 -0.02871,0.006 -0.04289,0.01 -0.119338,0.0301 -0.237418,0.0632 -0.353983,0.0997 -0.02588,0.008 -0.05126,0.0174 -0.077,0.0258 -0.09289,0.0304 -0.184984,0.0627 -0.275953,0.0971 -0.02927,0.0111 -0.05827,0.0226 -0.08733,0.0341 -0.08546,0.0338 -0.170114,0.0692 -0.253733,0.10646 -0.02853,0.0127 -0.05696,0.0256 -0.08526,0.0388 -0.0891,0.0413 -0.176715,0.0846 -0.263552,0.12971 -0.02099,0.0109 -0.04219,0.0214 -0.06304,0.0326 -0.217249,0.11593 -0.426892,0.24388 -0.628385,0.38292 -0.0115,0.008 -0.02266,0.0163 -0.03411,0.0243 -0.09164,0.0641 -0.181684,0.1303 -0.269751,0.19895 -0.0099,0.008 -0.01963,0.0155 -0.02945,0.0232 -0.0041,0.003 -0.0083,0.007 -0.0124,0.01 0,0 -5.16e-4,5.2e-4 -5.16e-4,5.2e-4 0,0 -5.19e-4,5.1e-4 -5.19e-4,5.1e-4 -0.08638,0.0685 -0.171029,0.13912 -0.25373,0.21188 -0.0052,0.005 -0.0108,0.009 -0.01602,0.0134 -0.196792,0.17424 -0.382299,0.36029 -0.556554,0.55707 -0.0036,0.004 -0.0072,0.008 -0.01085,0.0124 -0.07184,0.0815 -0.141576,0.165 -0.209288,0.25012 -0.0038,0.005 -0.0076,0.01 -0.01137,0.0145 -0.0012,0.002 -0.0024,0.003 -0.0036,0.005 -0.008,0.0101 -0.01584,0.0203 -0.02377,0.0305 -0.0723,0.0927 -0.142544,0.18702 -0.209807,0.2837 -0.003,0.004 -0.0063,0.009 -0.0093,0.0129 -0.143441,0.20725 -0.275352,0.42303 -0.394292,0.64699 -0.0039,0.007 -0.0075,0.0149 -0.01137,0.0222 -0.04965,0.0944 -0.09652,0.19024 -0.141591,0.28731 -0.01514,0.0326 -0.02983,0.0653 -0.04444,0.0982 -0.03491,0.0786 -0.06841,0.15801 -0.100254,0.23823 -0.01319,0.0332 -0.02661,0.0663 -0.03927,0.0997 -0.03649,0.0966 -0.07035,0.19426 -0.102317,0.29301 -0.0051,0.0158 -0.01103,0.0312 -0.01602,0.047 -0.03757,0.11916 -0.07204,0.23967 -0.102836,0.36173 -0.0041,0.0164 -0.0073,0.0331 -0.01137,0.0496 -0.02409,0.0987 -0.04609,0.19823 -0.06563,0.29869 -0.008,0.0409 -0.0145,0.0823 -0.0217,0.12351 -0.01456,0.0834 -0.02791,0.16719 -0.03928,0.25166 -0.0057,0.0423 -0.01114,0.0846 -0.01602,0.12713 -0.0103,0.0898 -0.01819,0.18037 -0.02481,0.2713 -0.0023,0.0321 -0.0059,0.0639 -0.0078,0.0961 -0.0074,0.12769 -0.01188,0.25641 -0.01188,0.38602 v 32.97163 c 0,0.12961 0.0045,0.25782 0.01188,0.38551 0.0019,0.0323 0.0054,0.064 0.0078,0.0961 0.0066,0.0909 0.01451,0.18147 0.02481,0.2713 0.0049,0.0425 0.01032,0.0848 0.01602,0.12712 0.01136,0.0845 0.02472,0.16827 0.03928,0.25167 0.0072,0.0412 0.01373,0.0826 0.0217,0.1235 0.01954,0.10046 0.04154,0.19997 0.06563,0.29869 0.004,0.0165 0.0072,0.0332 0.01137,0.0496 0.0308,0.12206 0.06527,0.24258 0.102836,0.36174 0.005,0.0158 0.01091,0.0312 0.01602,0.047 0.03197,0.0987 0.06582,0.19642 0.102317,0.293 0.01266,0.0335 0.02608,0.0665 0.03927,0.0997 0.03185,0.0802 0.06534,0.15964 0.100254,0.23823 0.01461,0.0329 0.0293,0.0656 0.04444,0.0982 0.04507,0.0971 0.09194,0.19295 0.141591,0.28732 0.0039,0.007 0.0075,0.0149 0.01137,0.0222 0.11894,0.22396 0.250851,0.43974 0.394292,0.64699 0.003,0.004 0.0063,0.009 0.0093,0.0129 0.0048,0.007 0.0096,0.0138 0.01447,0.0207 0.0013,0.002 0.0028,0.004 0.0041,0.006 0.06154,0.0875 0.125508,0.17311 0.191201,0.25735 0.0079,0.0102 0.01578,0.0204 0.02377,0.0305 0.0011,0.001 0.002,0.003 0.0031,0.004 0.004,0.005 0.0079,0.01 0.01189,0.015 0.06771,0.0851 0.137453,0.16858 0.209288,0.25011 0.0036,0.004 0.0072,0.008 0.01085,0.0124 0.174802,0.1974 0.361143,0.38391 0.558623,0.55862 0.0029,0.003 0.0059,0.005 0.0088,0.008 0.08793,0.0775 0.178181,0.15261 0.270266,0.22531 0.01117,0.009 0.02237,0.0176 0.03359,0.0264 0.08544,0.0666 0.172672,0.13099 0.261482,0.19327 0.0026,0.002 0.0051,0.004 0.0077,0.006 0.01093,0.008 0.02158,0.0157 0.03256,0.0232 0.201475,0.13902 0.411155,0.26649 0.628385,0.38241 0.02085,0.0111 0.04206,0.0216 0.06304,0.0326 0.08684,0.0451 0.174448,0.0884 0.263552,0.12971 0.0283,0.0131 0.05674,0.026 0.08526,0.0388 0.08362,0.0373 0.16827,0.0727 0.253733,0.10645 0.02906,0.0115 0.05807,0.023 0.08733,0.0341 0.0991,0.0375 0.199385,0.0732 0.300757,0.10593 0.01469,0.005 0.02919,0.01 0.04393,0.0145 0.115477,0.0364 0.232158,0.0697 0.350366,0.0997 0.03482,0.009 0.07037,0.016 0.105418,0.0243 0.08334,0.0197 0.167095,0.0383 0.251666,0.0548 0.04607,0.009 0.09259,0.0168 0.13901,0.0248 0.07522,0.013 0.150759,0.0248 0.226859,0.0351 0.0476,0.006 0.09521,0.0126 0.143142,0.0181 0.08303,0.01 0.166664,0.0169 0.250632,0.0232 0.04103,0.003 0.08174,0.007 0.122989,0.009 0.12429,0.007 0.249063,0.0119 0.375171,0.0119 h 162.20613 c 0.1263,0 0.25172,-0.005 0.3762,-0.0119 0.0407,-0.002 0.081,-0.006 0.12144,-0.009 0.084,-0.006 0.16758,-0.0133 0.25063,-0.0227 0.0483,-0.006 0.0962,-0.0121 0.14418,-0.0186 0.0769,-0.0105 0.15342,-0.0225 0.22944,-0.0357 0.0447,-0.008 0.0895,-0.0151 0.13385,-0.0238 0.0866,-0.0168 0.17202,-0.0361 0.25734,-0.0563 0.0338,-0.008 0.0682,-0.0147 0.10181,-0.0232 0.11821,-0.03 0.23488,-0.0633 0.35036,-0.0997 0.0147,-0.005 0.0292,-0.01 0.0439,-0.0145 0.10137,-0.0328 0.20166,-0.0684 0.30075,-0.10593 0.0293,-0.0111 0.0583,-0.0226 0.0873,-0.0341 0.0855,-0.0338 0.17011,-0.0692 0.25373,-0.10645 0.0285,-0.0127 0.057,-0.0256 0.0853,-0.0388 0.0992,-0.046 0.19711,-0.094 0.29352,-0.1447 0.006,-0.003 0.0115,-0.005 0.017,-0.008 0.002,-8.3e-4 0.003,-0.002 0.005,-0.003 0.223,-0.1184 0.43796,-0.24953 0.64441,-0.39222 0.002,-10e-4 0.004,-0.003 0.006,-0.004 0.01,-0.007 0.0191,-0.0143 0.0289,-0.0212 1.9e-4,-1.4e-4 3.2e-4,-3.8e-4 5.1e-4,-5.2e-4 0.0903,-0.0633 0.1788,-0.12864 0.26562,-0.19637 0.008,-0.006 0.0155,-0.012 0.0233,-0.0181 0.006,-0.005 0.0113,-0.009 0.0171,-0.014 0.0885,-0.0702 0.17532,-0.14243 0.25993,-0.21704 0.002,-0.002 0.004,-0.003 0.006,-0.005 9.2e-4,-8.1e-4 0.002,-0.002 0.003,-0.003 0.18978,-0.16791 0.36959,-0.34647 0.53847,-0.53537 0.004,-0.005 0.009,-0.0101 0.0129,-0.015 0.003,-0.003 0.006,-0.006 0.008,-0.009 8.1e-4,-9e-4 0.002,-0.002 0.003,-0.003 0.001,-0.001 0.002,-0.003 0.004,-0.004 0.0723,-0.0819 0.14219,-0.16613 0.21032,-0.25166 0.006,-0.008 0.0132,-0.0161 0.0196,-0.0243 3.8e-4,-4.9e-4 6.5e-4,-0.001 0.001,-0.002 3e-4,-3.8e-4 7.3e-4,-6.5e-4 0.001,-0.001 0.003,-0.004 0.006,-0.007 0.009,-0.0109 0.003,-0.003 0.005,-0.007 0.007,-0.01 0.0684,-0.0875 0.13454,-0.17661 0.19844,-0.26768 0.005,-0.007 0.0104,-0.0144 0.0155,-0.0217 0.002,-0.003 0.004,-0.005 0.006,-0.008 9.3e-4,-0.001 0.002,-0.003 0.003,-0.004 0.14269,-0.20618 0.27429,-0.42067 0.39274,-0.64338 0.006,-0.0105 0.0105,-0.0215 0.016,-0.032 0.0505,-0.0962 0.0984,-0.19399 0.14418,-0.293 0.0106,-0.023 0.0211,-0.0461 0.0315,-0.0693 0.0392,-0.0875 0.0763,-0.17608 0.11162,-0.26562 0.0114,-0.0289 0.0231,-0.0577 0.0341,-0.0868 0.0369,-0.0974 0.0711,-0.19594 0.10336,-0.29559 0.005,-0.0158 0.011,-0.0312 0.016,-0.047 0.0377,-0.11951 0.0725,-0.24034 0.10335,-0.36277 0.003,-0.0125 0.005,-0.0252 0.008,-0.0377 0.026,-0.10562 0.0495,-0.21227 0.0703,-0.31988 0.007,-0.0341 0.012,-0.0685 0.0181,-0.10283 0.0157,-0.0888 0.0298,-0.17815 0.0418,-0.2682 0.005,-0.0371 0.01,-0.0743 0.014,-0.11163 0.0104,-0.0893 0.0186,-0.17932 0.0253,-0.26975 0.003,-0.0388 0.007,-0.0773 0.009,-0.11627 0.007,-0.12463 0.0114,-0.24975 0.0114,-0.3762 v -32.97167 c 0,-0.12646 -0.004,-0.25209 -0.0114,-0.37672 -0.002,-0.039 -0.006,-0.0775 -0.009,-0.11627 -0.007,-0.0904 -0.0149,-0.18042 -0.0253,-0.26975 -0.004,-0.0373 -0.009,-0.0745 -0.014,-0.11162 -0.012,-0.0901 -0.0262,-0.17938 -0.0418,-0.2682 -0.006,-0.0343 -0.0115,-0.0687 -0.0181,-0.10284 -0.0207,-0.10761 -0.0443,-0.21426 -0.0703,-0.31988 -0.003,-0.0125 -0.005,-0.0253 -0.008,-0.0377 -0.0309,-0.12242 -0.0657,-0.24326 -0.10335,-0.36276 -0.005,-0.0158 -0.0109,-0.0312 -0.016,-0.047 -0.0323,-0.0996 -0.0665,-0.19815 -0.10336,-0.29559 -0.011,-0.0291 -0.0227,-0.0579 -0.0341,-0.0868 -0.0354,-0.0895 -0.0725,-0.17811 -0.11162,-0.26562 -0.0103,-0.023 -0.0205,-0.0459 -0.031,-0.0687 -0.0479,-0.10378 -0.0983,-0.20626 -0.15141,-0.30696 -0.002,-0.003 -0.003,-0.007 -0.005,-0.0103 -5.8e-4,-0.001 -0.001,-0.002 -0.002,-0.003 -0.11844,-0.22313 -0.24947,-0.43835 -0.39223,-0.64492 -0.007,-0.009 -0.0136,-0.0185 -0.0202,-0.0279 -0.002,-0.003 -0.004,-0.006 -0.006,-0.009 -0.0651,-0.0928 -0.1323,-0.18373 -0.20206,-0.27285 -0.001,-0.002 -0.003,-0.004 -0.004,-0.006 -0.001,-0.002 -0.003,-0.003 -0.004,-0.005 -0.003,-0.004 -0.006,-0.007 -0.008,-0.0103 -0.006,-0.007 -0.0117,-0.0148 -0.0176,-0.0222 -0.066,-0.0828 -0.13423,-0.16395 -0.20413,-0.2434 -0.004,-0.004 -0.007,-0.008 -0.0103,-0.0124 -0.002,-0.002 -0.004,-0.004 -0.006,-0.006 -0.17499,-0.19739 -0.36148,-0.38394 -0.55915,-0.55862 -0.004,-0.003 -0.008,-0.006 -0.0114,-0.009 -0.0829,-0.0729 -0.16768,-0.14373 -0.25425,-0.21239 -0.003,-0.003 -0.007,-0.005 -0.0103,-0.008 -0.0114,-0.009 -0.0227,-0.018 -0.0341,-0.0269 -0.0951,-0.074 -0.19172,-0.14571 -0.29094,-0.21446 -0.002,-0.001 -0.003,-0.002 -0.005,-0.003 -0.20472,-0.14159 -0.41771,-0.27193 -0.63872,-0.38964 -0.0164,-0.009 -0.0332,-0.0167 -0.0496,-0.0253 -0.0897,-0.0468 -0.18069,-0.0917 -0.27285,-0.13436 -0.0283,-0.0131 -0.0567,-0.026 -0.0853,-0.0388 -0.0836,-0.0373 -0.16827,-0.0727 -0.25373,-0.10645 -0.0291,-0.0115 -0.0581,-0.023 -0.0873,-0.0341 -0.091,-0.0344 -0.18306,-0.0667 -0.27595,-0.0971 -0.0259,-0.008 -0.0515,-0.0177 -0.0775,-0.0258 -0.1156,-0.0363 -0.23256,-0.0693 -0.35089,-0.0992 -0.0174,-0.004 -0.0352,-0.008 -0.0527,-0.0124 -0.0988,-0.0241 -0.19811,-0.0461 -0.29868,-0.0656 -0.0439,-0.008 -0.0881,-0.0156 -0.1323,-0.0233 -0.076,-0.0131 -0.15252,-0.0252 -0.22944,-0.0356 -0.048,-0.007 -0.0959,-0.0131 -0.14418,-0.0186 -0.0831,-0.01 -0.16664,-0.0164 -0.25063,-0.0227 -0.0401,-0.003 -0.08,-0.007 -0.1204,-0.009 -0.12482,-0.007 -0.25059,-0.0114 -0.37724,-0.0114 z m 1.5875,1.5875 H 179.23628 c 3.597,0 6.49314,2.89563 6.49314,6.49263 v 29.79663 c 0,3.597 -2.89614,6.49263 -6.49314,6.49263 H 20.205151 c -3.597,0 -6.493142,-2.89563 -6.493142,-6.49263 v -29.79663 c 0,-3.597 2.896142,-6.49263 6.493142,-6.49263 z"
         id="path1392"
         inkscape:connector-curvature="0" />
      <text
         xml:space="preserve"
         style="font-style:normal;font-variant:normal;font-weight:normal;font-stretch:normal;font-size:25.39999962px;line-height:1.25;font-family:'Ubuntu Condensed';-inkscape-font-specification:'Ubuntu Condensed, Normal';font-variant-ligatures:normal;font-variant-caps:normal;font-variant-numeric:normal;font-feature-settings:normal;text-align:start;letter-spacing:0px;word-spacing:0px;writing-mode:lr-tb;text-anchor:start;fill:#4d4d4d;fill-opacity:1;stroke:none;stroke-width:0.26458332"
         x="47.403038"
         y="157.06897"
         id="text1396"
         transform="skewX(-10.627584)"><tspan
           sodipodi:role="line"
           id="tspan1394"
           x="47.403038"
           y="157.06897"
           style="font-style:normal;font-variant:normal;font-weight:normal;font-stretch:normal;font-size:25.39999962px;font-family:'Ubuntu Condensed';-inkscape-font-specification:'Ubuntu Condensed, Normal';font-variant-ligatures:normal;font-variant-caps:normal;font-variant-numeric:normal;font-feature-settings:normal;text-align:start;letter-spacing:-0.00264583px;writing-mode:lr-tb;text-anchor:start;fill:#4d4d4d;stroke-width:0.26458332">RESOURCES</tspan></text>
      <text
         transform="skewX(-10.627584)"
         id="text1400"
         y="157.59813"
         x="48.031498"
         style="font-style:normal;font-variant:normal;font-weight:normal;font-stretch:normal;font-size:25.39999962px;line-height:1.25;font-family:'Ubuntu Condensed';-inkscape-font-specification:'Ubuntu Condensed, Normal';font-variant-ligatures:normal;font-variant-caps:normal;font-variant-numeric:normal;font-feature-settings:normal;text-align:start;letter-spacing:0px;word-spacing:0px;writing-mode:lr-tb;text-anchor:start;fill:#999999;fill-opacity:1;stroke:none;stroke-width:0.26458332"
         xml:space="preserve"><tspan
           style="font-style:normal;font-variant:normal;font-weight:normal;font-stretch:normal;font-size:25.39999962px;font-family:'Ubuntu Condensed';-inkscape-font-specification:'Ubuntu Condensed, Normal';font-variant-ligatures:normal;font-variant-caps:normal;font-variant-numeric:normal;font-feature-settings:normal;text-align:start;letter-spacing:-0.00264583px;writing-mode:lr-tb;text-anchor:start;fill:#999999;stroke-width:0.26458332"
           y="157.59813"
           x="48.031498"
           id="tspan1398"
           sodipodi:role="line">RESOURCES</tspan></text>
    </g>
  </g>
</svg>
